<svg viewBox="0 0 113 20" fill="none" xmlns="http://www.w3.org/2000/svg" height="20px" width="113px"><g clip-path="url(#logo_svg__a)" fill="currentColor"><path d="M19.937 5.984c0 .815-1.067.523-1.673 1.967l-3.033 7.217c-.23.586-.439.961-1.652.961-1.318 0-1.485-.439-1.695-.962l-1.861-4.769-1.904 4.77c-.21.48-.334.961-1.715.961-1.213 0-1.444-.356-1.694-.962L1.61 7.95C.983 6.465 0 6.8 0 5.984c0-.356.335-.566.69-.566.544 0 1.235.064 2.343.064 1.108 0 1.694-.064 2.238-.064s.837.231.837.587c0 .732-.962.586-.962 1.548 0 .251.125.69.292 1.13l1.779 4.58 1.967-5.041-.125-.293C8.494 6.445 7.574 6.8 7.574 5.984c0-.356.313-.566.69-.566.523 0 1.15.064 2.323.064.962 0 1.652-.064 2.196-.064.544 0 .858.231.858.587 0 .732-1.15.648-1.15 1.548 0 .334.063.586.251 1.13l1.548 4.623 1.8-4.623c.21-.544.313-.942.313-1.234 0-.858-1.109-.712-1.109-1.444 0-.356.335-.587.837-.587.46 0 .942.064 1.527.064.584 0 1.129-.064 1.569-.064.355 0 .711.231.711.566h-.001ZM20.564 15.44c0-.837 1.234-.377 1.234-1.925V9.1c0-1.339-1.38-.754-1.38-1.673 0-.46.523-.754 2.008-1.402 1.38-.627 1.632-.69 1.861-.69.502 0 .648.418.648 1.003v7.176c0 1.549 1.235 1.089 1.235 1.925 0 .272-.21.587-.69.587-.482 0-1.068-.064-2.114-.064-1.046 0-1.59.064-2.092.064s-.711-.293-.711-.587Zm.523-12.888c0-1.046 1.11-2.175 2.552-2.175.879 0 1.632.565 1.632 1.402 0 1.025-1.213 2.092-2.636 2.092-.92 0-1.548-.523-1.548-1.318ZM34.756 13.953c0 .335-.23.711-.523 1.004-.732.753-1.778 1.276-3.242 1.276-1.779 0-3.138-1.025-3.138-2.28 0-.439.084-2.05.084-3.494V7.071h-1.11c-.459 0-.774-.252-.774-.649 0-.419.272-.627.712-.878 1.338-.69 2.007-1.36 2.698-2.804.48-.775.669-1.11 1.088-1.11.314 0 .523.21.523.754v3.117h2.95c.334 0 .523.168.523.502 0 .168-.042.42-.063.545-.064.355-.231.523-.566.523h-2.845v5.209c0 1.61.523 2.029 1.255 2.029.502 0 .858-.252 1.297-.628.146-.125.334-.292.586-.292.355 0 .544.271.544.565l.001-.001ZM48.647 15.46c0 .335-.292.544-.753.544-.544 0-.983-.063-2.071-.063-1.089 0-1.548.063-2.114.063-.565 0-.774-.251-.774-.586 0-.775 1.213-.48 1.213-1.485 0-.313-.042-.502-.063-.69l-.439-3.096c-.188-1.423-.69-2.49-1.861-2.49-.921 0-1.967.711-1.967 2.803v3.054c0 1.548 1.255 1.088 1.255 1.925 0 .271-.21.586-.711.586-.502 0-1.046-.063-2.113-.063s-1.57.063-2.071.063c-.502 0-.712-.292-.712-.586 0-.837 1.214-.377 1.214-1.925v-9.77c0-1.317-1.381-.732-1.381-1.673 0-.46.544-.732 2.01-1.402C38.688.063 38.96 0 39.211 0c.48 0 .607.398.607.92v6.423c.648-1.109 1.84-2.07 3.494-2.07 2.155 0 3.138 1.84 3.43 4.1l.502 3.89c.252 1.863 1.402 1.299 1.402 2.197ZM61.492 16.36c0 2.155-2.405 3.64-6.276 3.64-3.87 0-6.213-1.067-6.213-2.615 0-.816.607-1.485 1.652-1.904-.69-.355-1.15-.92-1.15-1.736s.69-1.715 1.59-2.323c-1.11-.565-1.736-1.444-1.736-2.573 0-1.988 1.966-3.744 5.71-3.744.293 0 .566.021.837.042.23-2.029 1.59-3.305 2.448-3.305.565 0 1.13.251 1.925.9.313.23.544.523.544.836 0 .335-.21.606-.69.606-1.402.042-2.679.189-2.95 1.15 1.967.481 3.054 1.633 3.054 3.117 0 1.946-1.904 3.662-5.69 3.662a9.675 9.675 0 0 1-2.156-.23c-.251.23-.46.438-.46.647 0 .356.42.502 1.34.587 1.924.146 3.556.27 4.81.355 1.925.168 3.41 1.088 3.41 2.887l.001.001ZM58.5 17.427c0-.523-.48-.879-1.569-1.004-1.465-.188-3.096-.334-4.728-.544-.419.335-.69.837-.69 1.277 0 1.088 1.506 1.527 3.724 1.527 2.219 0 3.263-.608 3.263-1.256Zm-6.045-8.912c0 1.465 1.13 2.28 2.405 2.28 1.339 0 2.26-.836 2.26-2.07 0-1.466-1.13-2.302-2.406-2.302-1.338 0-2.26.857-2.26 2.092ZM61.495 10.878c0-3.327 2.657-5.795 6.38-5.795s5.983 2.384 5.983 5.522c0 3.389-2.74 5.774-6.38 5.774-3.64 0-5.983-2.384-5.983-5.501Zm8.974.586c0-2.113-1.213-4.79-3.18-4.79-1.527 0-2.406 1.234-2.406 3.347 0 2.114 1.193 4.77 3.18 4.77 1.548 0 2.406-1.235 2.406-3.327ZM74.988 10.878c0-3.327 2.657-5.795 6.38-5.795s5.983 2.384 5.983 5.522c0 3.389-2.74 5.774-6.38 5.774-3.64 0-5.983-2.384-5.983-5.501Zm8.974.586c0-2.113-1.213-4.79-3.18-4.79-1.527 0-2.406 1.234-2.406 3.347 0 2.114 1.193 4.77 3.18 4.77 1.549 0 2.406-1.235 2.406-3.327ZM101.682 14.435c0 .502-.523.754-2.113 1.277-1.297.46-1.612.523-1.82.523-.586 0-.648-.606-.648-1.025v-.962c-.775 1.15-2.07 2.05-3.85 2.05-2.615 0-4.749-1.988-4.749-5.376 0-3.389 2.406-5.754 5.565-5.754 1.277 0 2.302.398 3.033 1.025v-2.51c0-1.34-1.611-.691-1.611-1.674 0-.46.523-.732 2.155-1.402C99.046.042 99.38 0 99.59 0c.523 0 .648.46.648 1.004v11.632c0 1.317 1.444.942 1.444 1.8ZM97.1 11.172v-.733c0-2.113-1.339-3.682-2.846-3.682-1.507 0-2.427 1.235-2.427 3.263 0 2.51 1.423 4.08 2.866 4.08 1.298 0 2.406-1.13 2.406-2.93v.002ZM103.505 15.44l-.69-1.486c-.314-.669-.544-1.046-.544-1.422 0-.398.271-.608.544-.608.272 0 .502.189.794.481 1.256 1.214 2.825 2.323 4.561 2.323 1.109 0 1.758-.565 1.758-1.235 0-.92-1.235-1.109-2.887-1.484-2.259-.502-4.54-1.36-4.54-3.536 0-1.883 1.715-3.202 3.996-3.202 1.192 0 2.134.335 2.511.335.419 0 .419-.419.9-.419.481 0 .69.398.961.816l.775 1.213c.293.439.544.9.544 1.213 0 .314-.23.523-.481.523-.313 0-.544-.23-.815-.46-1.171-.982-2.657-1.778-3.954-1.778-.836 0-1.402.398-1.402.962 0 .857 1.089 1.046 2.804 1.465 2.342.544 4.623 1.255 4.623 3.598 0 2.217-2.113 3.451-4.769 3.451-1.465 0-2.344-.377-2.741-.377-.523 0-.565.545-1.088.545-.439 0-.669-.502-.858-.921l-.002.002Z"></path></g><defs><clipPath id="logo_svg__a"><path fill="#fff" d="M0 0h112.962v20H0z"></path></clipPath></defs></svg>